<svg width="82" height="75" viewBox="0 0 82 75" fill="none" xmlns="http://www.w3.org/2000/svg">
<path d="M68.2508 11.2322H13.6505V28.7044H68.2508V11.2322Z" fill="#FF9811"/>
<path d="M64.1558 11.2322V28.7044H9.55555C9.55408 27.711 9.98505 26.7579 10.7533 26.0555C11.5216 25.353 12.564 24.959 13.6505 24.9604V11.2322H64.1558Z" fill="#FF9811"/>
<path d="M40.9507 1.24805V14.9762H13.6506V2.496C13.6206 1.83909 14.1746 1.28254 14.8926 1.24805H40.9507Z" fill="#02A9F4"/>
<path d="M68.2508 2.496V14.9761H40.9507V1.24805H67.0088C67.7268 1.28254 68.2807 1.83924 68.2508 2.496Z" fill="#02A9F4"/>
<path d="M76.4409 33.6964V41.1846L69.6159 51.1687H12.2856L5.46057 41.1846V33.6964H9.55554V28.7043C9.55407 27.7109 9.98503 26.7578 10.7533 26.0554C11.5215 25.353 12.564 24.959 13.6505 24.9603H68.2508C69.3373 24.959 70.3797 25.353 71.148 26.0554C71.9162 26.7578 72.3472 27.7109 72.3457 28.7043V33.6964H76.4409Z" fill="#FF9811"/>
<path d="M69.6172 33.6964V41.1846L65.3583 47.4246L62.792 51.1686H5.46203L1.36707 45.1781V43.6805C1.37146 42.3036 2.59116 41.1885 4.0971 41.1844H5.46203V33.6963H9.55699V28.7042C9.55553 27.7108 9.98649 26.7577 10.7547 26.0553C11.523 25.3529 12.5654 24.9589 13.652 24.9602H61.4271C63.6853 24.9678 65.5139 26.6397 65.522 28.7042V33.6963H69.6172V33.6964Z" fill="#FF9811"/>
<path d="M69.6158 47.4246H12.2855V53.6646H69.6158V47.4246Z" fill="#FF9811"/>
<path d="M65.5208 47.4246H8.19055V53.6646H65.5208V47.4246Z" fill="#FF9811"/>
<path d="M27.3006 53.6647V59.9049L12.2855 64.8968V53.6647H27.3006Z" fill="#607D8B"/>
<path d="M4.09551 41.1846H9.55557C11.0633 41.1846 12.2856 42.3021 12.2856 43.6806V71.137C12.2856 72.5155 11.0633 73.633 9.55557 73.633H4.09551C2.58779 73.633 1.36548 72.5155 1.36548 71.137V43.6806C1.36548 42.3021 2.58779 41.1846 4.09551 41.1846Z" fill="#37474F"/>
<path d="M69.6158 53.6647V64.8968L54.6007 59.9049V53.6647H69.6158Z" fill="#607D8B"/>
<path d="M72.3458 41.1846H77.8058C79.3135 41.1846 80.5358 42.3021 80.5358 43.6806V71.137C80.5358 72.5155 79.3135 73.633 77.8058 73.633H72.3458C70.838 73.633 69.6157 72.5155 69.6157 71.137V43.6806C69.6157 42.3021 70.838 41.1846 72.3458 41.1846Z" fill="#37474F"/>
<path d="M21.8406 41.1845V47.4246H12.2856V43.6806C12.2812 42.3037 11.0615 41.1886 9.55554 41.1845H5.46057V33.6964H9.55554L21.8406 41.1845Z" fill="#FF9811"/>
<path d="M76.4409 33.6964V41.1845H72.346C70.84 41.1886 69.6203 42.3037 69.6159 43.6806V47.4246H60.0609V41.1845L72.346 33.6964H76.4409Z" fill="#FF9811"/>
<path d="M25.9356 14.9762L34.1257 1.24805H27.3007L19.1106 14.9762H25.9356Z" fill="#00BCD4"/>
<path d="M54.6006 14.9762L62.7907 1.24805H55.9657L47.7756 14.9762H54.6006Z" fill="#00BCD4"/>
<path d="M4.77806 22.4644C6.66277 22.4644 8.19064 21.0675 8.19064 19.3443C8.19064 17.6212 6.66277 16.2242 4.77806 16.2242C2.89334 16.2242 1.36548 17.6212 1.36548 19.3443C1.36548 21.0675 2.89334 22.4644 4.77806 22.4644Z" fill="#FF9811"/>
<path d="M77.1233 22.4644C79.008 22.4644 80.5358 21.0675 80.5358 19.3443C80.5358 17.6212 79.008 16.2242 77.1233 16.2242C75.2386 16.2242 73.7107 17.6212 73.7107 19.3443C73.7107 21.0675 75.2386 22.4644 77.1233 22.4644Z" fill="#FF9811"/>
<path d="M54.6008 53.6647H27.3007V59.9047H54.6008V53.6647Z" fill="#607D8B" stroke="black" stroke-width="2" stroke-linecap="round" stroke-linejoin="round"/>
<path d="M27.3007 28.7045C26.9387 28.7043 26.5913 28.8358 26.3354 29.0698C26.0794 29.3038 25.9356 29.6214 25.9358 29.9524V42.4325C25.9358 43.1218 26.5469 43.6805 27.3007 43.6805C28.0545 43.6805 28.6657 43.1217 28.6657 42.4325V29.9524C28.6658 29.6214 28.5221 29.3038 28.2661 29.0698C28.0101 28.8356 27.6627 28.7042 27.3007 28.7045Z" fill="black"/>
<path d="M32.7606 28.7045C32.3986 28.7043 32.0512 28.8358 31.7952 29.0698C31.5392 29.3038 31.3955 29.6214 31.3956 29.9524V42.4325C31.3956 43.1218 32.0068 43.6805 32.7606 43.6805C33.5145 43.6805 34.1255 43.1217 34.1255 42.4325V29.9524C34.1257 29.6214 33.9819 29.3038 33.7259 29.0698C33.4699 28.8356 33.1227 28.7042 32.7606 28.7045Z" fill="black"/>
<path d="M38.2206 28.7045C37.8586 28.7043 37.5113 28.8358 37.2553 29.0698C36.9993 29.3038 36.8556 29.6214 36.8557 29.9524V42.4325C36.8557 43.1218 37.4669 43.6805 38.2206 43.6805C38.9744 43.6805 39.5856 43.1217 39.5856 42.4325V29.9524C39.5857 29.6214 39.442 29.3038 39.186 29.0698C38.93 28.8356 38.5828 28.7042 38.2206 28.7045Z" fill="black"/>
<path d="M43.6807 28.7045C43.3187 28.7043 42.9714 28.8358 42.7154 29.0698C42.4594 29.3038 42.3156 29.6214 42.3158 29.9524V42.4325C42.3158 43.1218 42.9269 43.6805 43.6807 43.6805C44.4345 43.6805 45.0457 43.1217 45.0457 42.4325V29.9524C45.0458 29.6214 44.9021 29.3038 44.6461 29.0698C44.3901 28.8356 44.0427 28.7042 43.6807 28.7045Z" fill="black"/>
<path d="M49.1408 28.7045C48.7788 28.7043 48.4314 28.8358 48.1755 29.0698C47.9195 29.3038 47.7757 29.6214 47.7759 29.9524V42.4325C47.7759 43.1218 48.387 43.6805 49.1408 43.6805C49.8946 43.6805 50.5057 43.1217 50.5057 42.4325V29.9524C50.5059 29.6214 50.3621 29.3038 50.1062 29.0698C49.8502 28.8356 49.5028 28.7042 49.1408 28.7045Z" fill="black"/>
<path d="M54.6006 28.7045C54.2386 28.7043 53.8913 28.8358 53.6353 29.0698C53.3793 29.3038 53.2356 29.6214 53.2357 29.9524V42.4325C53.2357 43.1218 53.8469 43.6805 54.6006 43.6805C55.3544 43.6805 55.9656 43.1217 55.9656 42.4325V29.9524C55.9657 29.6214 55.822 29.3038 55.566 29.0698C55.3102 28.8356 54.9628 28.7042 54.6006 28.7045Z" fill="black"/>
<path d="M60.5794 28.8044C60.2501 28.6668 59.8716 28.6668 59.5423 28.8044C59.1995 28.918 58.9295 29.1649 58.8053 29.4783C58.7353 29.6283 58.6981 29.7894 58.696 29.9525C58.6898 30.2814 58.8332 30.5978 59.0918 30.8263C59.3486 31.0615 59.6973 31.1937 60.0609 31.1937C60.4246 31.1937 60.7731 31.0615 61.03 30.8263C61.2881 30.5975 61.4315 30.2812 61.426 29.9525C61.4207 29.6221 61.2793 29.3057 61.0302 29.0664C60.897 28.9564 60.7446 28.8678 60.5794 28.8044Z" fill="black"/>
<path d="M22.359 28.8044C22.0297 28.6668 21.6513 28.6668 21.322 28.8044C20.9791 28.918 20.7092 29.1649 20.5849 29.4783C20.515 29.6283 20.4778 29.7894 20.4757 29.9525C20.4695 30.2814 20.6129 30.5978 20.8715 30.8263C21.1283 31.0615 21.477 31.1937 21.8406 31.1937C22.2042 31.1937 22.5529 31.0615 22.8097 30.8263C23.0678 30.5975 23.211 30.2812 23.2057 29.9525C23.2003 29.6221 23.059 29.3057 22.8098 29.0664C22.6768 28.9564 22.5244 28.8678 22.359 28.8044Z" fill="black"/>
<path d="M77.1232 23.7124C79.4065 23.7336 81.3938 22.2891 81.8861 20.2504C82.3782 18.2118 81.2406 16.1366 79.1596 15.2772C77.0786 14.4178 74.6236 15.0091 73.2759 16.6945C71.9282 18.3799 72.0565 20.6981 73.5835 22.2505L70.9242 24.3783C70.5134 24.1636 70.0735 23.9993 69.6158 23.8896V2.49605C69.6459 1.14848 68.4782 0.0322656 67.0045 0H14.8969C13.423 0.0324143 12.2555 1.14848 12.2855 2.49605V23.8895C11.8279 23.9992 11.388 24.1635 10.9772 24.3782L8.31776 22.2505C9.80889 20.7152 9.92338 18.436 8.59227 16.7823C7.26117 15.1285 4.84696 14.5507 2.80046 15.3959C0.753951 16.241 -0.368016 18.2793 0.109133 20.2855C0.586282 22.2918 2.53228 23.7202 4.77801 23.7122C5.13888 23.7095 5.49828 23.6692 5.84907 23.5921L9.00421 26.1165C8.47632 26.8936 8.19465 27.7894 8.19058 28.7042V32.4482H1.36543C0.611489 32.4482 0.000497724 33.0069 0.000497724 33.6961C0.000497724 34.3854 0.611652 34.9441 1.36543 34.9441H4.09546V39.9361C1.83494 39.9384 0.00293714 41.6134 0.000497724 43.6801V71.1365C0.00293714 73.2033 1.83494 74.8783 4.09546 74.8805H9.55552C11.816 74.8783 13.648 73.2033 13.6505 71.1365V65.7702L27.767 61.0768C28.2265 60.9253 28.5621 60.5607 28.6473 60.1212C28.7326 59.6815 28.5545 59.2338 28.1801 58.947C27.8057 58.6601 27.2923 58.5782 26.8339 58.7319L13.6503 63.115V54.9123H68.2506V63.115L55.067 58.7319C54.3594 58.4985 53.5786 58.8326 53.3214 59.479C53.0641 60.1253 53.4276 60.8401 54.1338 61.0769L68.2504 65.7703V71.1367C68.2528 73.2034 70.0848 74.8784 72.3454 74.8806H77.8054C80.0659 74.8784 81.8979 73.2034 81.9004 71.1367V43.6806C81.8979 41.6138 80.0659 39.9388 77.8054 39.9366V34.9445H80.5354C81.2894 34.9445 81.9004 34.3857 81.9004 33.6965C81.9004 33.0072 81.2892 32.4486 80.5354 32.4486H73.7105V28.7046C73.7064 27.7899 73.4247 26.894 72.8968 26.117L76.052 23.5925C76.4031 23.6694 76.7623 23.7097 77.1232 23.7124ZM77.1232 17.4723C77.9526 17.4719 78.7005 17.9289 79.017 18.6299C79.3336 19.3308 79.1564 20.1371 78.5681 20.6718C77.9799 21.2065 77.097 21.364 76.3322 21.0706L76.3179 21.0647C75.4237 20.7152 74.922 19.839 75.1172 18.9681C75.3125 18.0971 76.1508 17.472 77.1232 17.4723ZM58.6957 41.1845V46.1766H23.2055V41.1845C23.2053 40.7673 22.9773 40.3778 22.5976 40.1462L10.9205 33.0286V28.7045C10.9224 27.3267 12.1436 26.2102 13.6505 26.2084H68.2507C69.7576 26.2102 70.9788 27.3267 70.9808 28.7045V33.0286L59.3036 40.1462C58.9239 40.3778 58.6957 40.7673 58.6957 41.1845ZM15.0192 16.2242H66.8856V23.7124H15.0161L15.0192 16.2242ZM31.8265 2.49605L25.1255 13.7282H21.4098L28.1108 2.49605H31.8265ZM39.5857 2.49605V13.7282H28.2348L34.9358 2.49605H39.5857ZM60.4916 2.49605L53.7905 13.7282H50.0748L56.7759 2.49605H60.4916ZM46.9655 13.7282H42.3157V2.49605H53.6666L46.9655 13.7282ZM66.8856 13.7282H56.8997L63.6007 2.49605H66.8856V13.7282ZM25.0014 2.49605L18.3003 13.7282H15.0201L15.0248 2.49605H25.0014ZM2.73053 19.3443C2.73004 18.4076 3.48674 17.6148 4.50187 17.4884C5.51699 17.362 6.47795 17.9411 6.75133 18.8438C7.02471 19.7465 6.52625 20.695 5.58448 21.0641L5.56659 21.0712C4.93478 21.3131 4.21239 21.2499 3.64238 20.9027C3.07237 20.5555 2.72988 19.9706 2.73053 19.3443ZM6.82549 34.9445H9.14228L20.4755 41.8525V46.1766H13.6505V43.6806C13.648 41.6138 11.816 39.9388 9.55552 39.9366H6.82549V34.9445ZM9.55552 72.3849H4.09546C3.34184 72.3845 2.73101 71.826 2.73053 71.1369V68.6409H4.09546C4.8494 68.6409 5.46039 68.0821 5.46039 67.393C5.46039 66.7036 4.84924 66.145 4.09546 66.145H2.73053V63.649H4.09546C4.8494 63.649 5.46039 63.0902 5.46039 62.401C5.46039 61.7117 4.84924 61.1531 4.09546 61.1531H2.73053V58.657H4.09546C4.8494 58.657 5.46039 58.0982 5.46039 57.4091C5.46039 56.7199 4.84924 56.1611 4.09546 56.1611H2.73053V53.6651H4.09546C4.8494 53.6651 5.46039 53.1063 5.46039 52.4171C5.46039 51.7279 4.84924 51.1692 4.09546 51.1692H2.73053V48.6731H4.09546C4.8494 48.6731 5.46039 48.1143 5.46039 47.4252C5.46039 46.7359 4.84924 46.1772 4.09546 46.1772H2.73053V43.6812C2.73101 42.9922 3.34184 42.4337 4.09546 42.4332H9.55552C10.3091 42.4337 10.92 42.9922 10.9205 43.6812V46.1772H9.55552C8.80158 46.1772 8.19058 46.736 8.19058 47.4252C8.19058 48.1145 8.80174 48.6731 9.55552 48.6731H10.9205V51.1692H9.55552C8.80158 51.1692 8.19058 51.7279 8.19058 52.4171C8.19058 53.1063 8.80174 53.6651 9.55552 53.6651H10.9205V56.1611H9.55552C8.80158 56.1611 8.19058 56.7199 8.19058 57.4091C8.19058 58.0982 8.80174 58.657 9.55552 58.657H10.9205V61.1531H9.55552C8.80158 61.1531 8.19058 61.7118 8.19058 62.401C8.19058 63.0903 8.80174 63.649 9.55552 63.649H10.9205V66.145H9.55552C8.80158 66.145 8.19058 66.7038 8.19058 67.393C8.19058 68.0823 8.80174 68.6409 9.55552 68.6409H10.9205V71.1369C10.92 71.826 10.3091 72.3845 9.55552 72.3849ZM13.6505 52.4167V48.6727H68.2507V52.4167H13.6505ZM79.1707 43.6806V46.1766H77.8057C77.0518 46.1766 76.4408 46.7354 76.4408 47.4246C76.4408 48.1139 77.052 48.6725 77.8057 48.6725H79.1707V51.1686H77.8057C77.0518 51.1686 76.4408 51.7273 76.4408 52.4165C76.4408 53.1057 77.052 53.6645 77.8057 53.6645H79.1707V56.1605H77.8057C77.0518 56.1605 76.4408 56.7193 76.4408 57.4085C76.4408 58.0976 77.052 58.6564 77.8057 58.6564H79.1707V61.1525H77.8057C77.0518 61.1525 76.4408 61.7112 76.4408 62.4004C76.4408 63.0897 77.052 63.6484 77.8057 63.6484H79.1707V66.1444H77.8057C77.0518 66.1444 76.4408 66.7032 76.4408 67.3924C76.4408 68.0817 77.052 68.6403 77.8057 68.6403H79.1707V71.1364C79.1702 71.8254 78.5594 72.3839 77.8057 72.3843H72.3457C71.5921 72.3839 70.9812 71.8254 70.9808 71.1364V68.6403H72.3457C73.0996 68.6403 73.7106 68.0815 73.7106 67.3924C73.7106 66.703 73.0995 66.1444 72.3457 66.1444H70.9808V63.6484H72.3457C73.0996 63.6484 73.7106 63.0896 73.7106 62.4004C73.7106 61.7111 73.0995 61.1525 72.3457 61.1525H70.9808V58.6564H72.3457C73.0996 58.6564 73.7106 58.0976 73.7106 57.4085C73.7106 56.7193 73.0995 56.1605 72.3457 56.1605H70.9808V53.6645H72.3457C73.0996 53.6645 73.7106 53.1057 73.7106 52.4165C73.7106 51.7273 73.0995 51.1686 72.3457 51.1686H70.9808V48.6725H72.3457C73.0996 48.6725 73.7106 48.1138 73.7106 47.4246C73.7106 46.7353 73.0995 46.1766 72.3457 46.1766H70.9808V43.6806C70.9812 42.9916 71.5921 42.4331 72.3457 42.4326H77.8057C78.5594 42.4331 79.1702 42.9916 79.1707 43.6806ZM75.0757 34.9445V39.9366H72.3457C70.0852 39.9388 68.2532 41.6138 68.2507 43.6806V46.1766H61.4257V41.8525L72.7589 34.9445H75.0757Z" fill="black"/>
</svg>
