<svg width="440" height="410" viewBox="0 0 440 410" fill="none" xmlns="http://www.w3.org/2000/svg">
<path d="M220 409.999C341.502 409.999 439.999 318.218 439.999 205C439.999 91.7814 341.502 0 220 0C98.4972 0 0 91.7814 0 205C0 318.218 98.4972 409.999 220 409.999Z" fill="#4BC999"/>
<path d="M244.374 288.229V408.752C243.736 408.82 243.09 408.886 242.453 408.945C235.071 409.639 227.583 409.999 220.004 409.999C219.025 409.999 218.046 409.991 217.077 409.982C210.495 409.899 203.984 409.548 197.555 408.945C196.918 408.886 196.271 408.819 195.634 408.752V288.229H244.374Z" fill="#494B5B"/>
<path d="M244.374 315.481V408.752C243.736 408.82 243.09 408.886 242.453 408.945C235.071 409.639 227.583 409.999 220.004 409.999C219.025 409.999 218.046 409.991 217.077 409.982V333.53C217.077 323.556 225.751 315.482 236.445 315.482L244.374 315.481Z" fill="#5C5E70"/>
<path d="M344.259 294.34H95.7432C77.142 294.34 62.0625 280.288 62.0625 262.955V31.3843C62.0616 14.0513 77.1411 0 95.7432 0H344.259C362.86 0 377.939 14.0513 377.939 31.3843V262.955C377.939 280.288 362.86 294.34 344.259 294.34Z" fill="#34ABE0"/>
<path d="M341.372 16.8092H98.6264C88.4075 16.8092 80.1016 24.5488 80.1016 34.0709V260.266C80.1016 269.788 88.4075 277.536 98.6264 277.536H341.372C351.591 277.536 359.906 269.788 359.906 260.266V34.0709C359.905 24.5488 351.591 16.8092 341.372 16.8092ZM351.133 260.266C351.133 265.278 346.751 269.361 341.372 269.361H98.6264C93.2475 269.361 88.8742 265.278 88.8742 260.266V34.0709C88.8742 29.0588 93.2475 24.9836 98.6264 24.9836H341.372C346.751 24.9836 351.133 29.0588 351.133 34.0709V260.266Z" fill="#FCF8F2"/>
<path d="M228.139 71.1047H181.526C173.642 71.1047 168.461 75.7237 168.461 80.9696V214.437C168.461 221.147 177.243 224.511 186.025 224.511C194.807 224.511 203.589 221.148 203.589 214.437V169.103H225.885C256.964 169.103 281.289 155.673 281.289 120.422V119.367C281.289 84.1159 257.871 71.1047 228.139 71.1047ZM246.161 122.94C246.161 137.206 238.501 143.926 225.885 143.926H203.588V99.6454H225.885C238.501 99.6454 246.161 106.356 246.161 120.631V122.94Z" fill="#FCF8F2"/>
</svg>
